<?xml version="1.0" standalone="no"?>
<!DOCTYPE svg PUBLIC "-//W3C//DTD SVG 20010904//EN"
 "http://www.w3.org/TR/2001/REC-SVG-20010904/DTD/svg10.dtd">
<svg version="1.0" xmlns="http://www.w3.org/2000/svg"
 width="367.000000pt" height="367.000000pt" viewBox="0 0 367.000000 367.000000"
 preserveAspectRatio="xMidYMid meet">
<metadata>
Created by potrace 1.14, written by Peter Selinger 2001-2017
</metadata>
<g transform="translate(0.000000,367.000000) scale(0.100000,-0.100000)"
fill="#000000" stroke="none">
<path d="M463 3402 c-255 -1 -463 -5 -463 -8 0 -3 11 -15 24 -27 100 -93 222
-205 240 -220 22 -19 173 -158 291 -267 119 -110 274 -252 294 -269 10 -9 60
-54 111 -101 51 -47 100 -92 110 -100 9 -8 60 -54 112 -103 52 -48 109 -100
128 -117 21 -19 31 -35 28 -47 -5 -15 -596 -1364 -644 -1468 -7 -16 -47 -106
-88 -200 -59 -136 -71 -172 -60 -178 8 -4 119 -11 248 -14 l234 -6 20 39 c22
44 391 871 489 1099 36 83 75 173 88 200 12 28 37 84 55 125 18 41 43 100 57
130 14 30 59 133 100 229 l76 175 -60 55 c-61 57 -229 212 -295 272 -255 230
-345 315 -342 318 2 2 497 6 1101 8 604 2 1145 5 1203 6 l105 2 3 238 2 239
-1352 -4 c-744 -1 -1561 -4 -1815 -6z"/>
<path d="M2067 1843 c-48 -109 -219 -502 -381 -873 -208 -475 -291 -677 -283
-682 7 -4 510 -8 1120 -8 l1107 0 0 235 0 235 -287 1 c-270 1 -361 4 -370 12
-6 7 74 206 133 334 l24 52 -101 98 c-155 150 -256 239 -263 232 -5 -5 -228
-510 -282 -637 l-39 -93 -162 3 c-89 2 -164 6 -168 10 -4 3 84 216 194 473
111 257 201 470 201 475 0 16 -335 330 -352 330 -3 0 -44 -89 -91 -197z"/>
</g>
</svg>
